<svg xmlns="http://www.w3.org/2000/svg" xmlns:xlink="http://www.w3.org/1999/xlink" width="87" height="20">
    <defs>
        <mask id="mask">
            <rect width="87" height="20" fill="#fff"/>
        </mask>
        <g id="text">
            <path d="M10 9.6L13.1 9.6L13.1 13.7Q12.3 13.9 11.7 14.0Q11 14.1 10.3 14.1Q8.5 14.1 7.6 13.1Q6.6 12 6.6 10.1Q6.6 8.2 7.7 7.1Q8.8 6 10.7 6.0Q12 6 13.1 6.5L12.5 7.9Q11.7 7.4 10.7 7.4Q9.7 7.4 9 8.1Q8.4 8.9 8.4 10.1Q8.4 11.4 8.9 12.0Q9.4 12.7 10.4 12.7Q10.9 12.7 11.5 12.6L11.5 11.0L10 11.0L10 9.6ZM16.1 11.0Q16.1 11.9 16.4 12.3Q16.7 12.8 17.4 12.8Q18 12.8 18.3 12.3Q18.6 11.9 18.6 11.0Q18.6 10.1 18.3 9.6Q18 9.2 17.4 9.2Q16.7 9.2 16.4 9.6Q16.1 10.1 16.1 11.0M20.3 11.0Q20.3 12.5 19.5 13.3Q18.7 14.1 17.4 14.1Q16.5 14.1 15.8 13.7Q15.2 13.4 14.8 12.6Q14.5 11.9 14.5 11.0Q14.5 9.5 15.2 8.7Q16 7.9 17.4 7.9Q18.3 7.9 18.9 8.3Q19.6 8.6 19.9 9.3Q20.3 10 20.3 11.0ZM23.3 14L21.6 14L21.6 5.6L23.3 5.6L23.3 14ZM28.8 14L28.5 13.2L28.4 13.2Q28 13.7 27.6 13.9Q27.2 14.1 26.5 14.1Q25.6 14.1 25.1 13.6Q24.6 13.1 24.6 12.2Q24.6 11.3 25.3 10.8Q25.9 10.3 27.3 10.3L28.3 10.3L28.3 10.0Q28.3 9.1 27.4 9.1Q26.7 9.1 25.7 9.5L25.2 8.4Q26.2 7.9 27.5 7.9Q28.7 7.9 29.3 8.4Q29.9 8.9 29.9 10.0L29.9 14L28.8 14M28.3 11.2L27.7 11.2Q27 11.3 26.6 11.5Q26.3 11.7 26.3 12.2Q26.3 12.9 27.1 12.9Q27.6 12.9 28 12.6Q28.3 12.3 28.3 11.7L28.3 11.2ZM37.2 14L35.5 14L35.5 10.5Q35.5 9.8 35.3 9.5Q35.1 9.2 34.6 9.2Q33.9 9.2 33.6 9.7Q33.3 10.1 33.3 11.2L33.3 14L31.6 14L31.6 8.0L32.9 8.0L33.1 8.8L33.2 8.8Q33.5 8.3 34 8.1Q34.4 7.9 35 7.9Q36.1 7.9 36.6 8.4Q37.2 9 37.2 10.1L37.2 14ZM44.1 8.0L44.1 8.8L43.2 9.1Q43.4 9.5 43.4 10.0Q43.4 10.9 42.7 11.5Q42.1 12 40.9 12.0L40.6 12.0L40.3 12.0Q40.1 12.2 40.1 12.4Q40.1 12.8 41 12.8L42 12.8Q43 12.8 43.5 13.2Q44 13.6 44 14.4Q44 15.5 43.1 16.1Q42.3 16.6 40.6 16.6Q39.4 16.6 38.7 16.2Q38 15.8 38 15.0Q38 14.4 38.4 14.1Q38.7 13.7 39.4 13.5Q39.1 13.4 38.9 13.2Q38.7 13 38.7 12.7Q38.7 12.3 38.9 12.1Q39.1 11.9 39.5 11.7Q39 11.5 38.8 11.0Q38.5 10.6 38.5 9.9Q38.5 9 39.1 8.4Q39.8 7.9 41 7.9Q41.2 7.9 41.6 7.9Q41.9 8 42 8.0L44.1 8.0M39.5 14.8Q39.5 15.2 39.8 15.4Q40.1 15.6 40.7 15.6Q41.6 15.6 42.1 15.3Q42.6 15.1 42.6 14.7Q42.6 14.3 42.3 14.2Q42 14.1 41.4 14.1L40.5 14.1Q40.1 14.1 39.8 14.3Q39.5 14.5 39.5 14.8M40.1 10.0Q40.1 10.4 40.3 10.7Q40.5 11 41 11.0Q41.4 11 41.6 10.7Q41.8 10.4 41.8 10.0Q41.8 8.9 41 8.9Q40.1 8.9 40.1 10.0ZM48.5 7.4Q47.6 7.4 47.1 8.1Q46.6 8.8 46.6 10.1Q46.6 12.7 48.5 12.7Q49.4 12.7 50.5 12.3L50.5 13.7Q49.6 14.1 48.4 14.1Q46.7 14.1 45.8 13.1Q44.9 12 44.9 10.1Q44.9 8.9 45.3 7.9Q45.8 7 46.6 6.5Q47.4 6 48.5 6.0Q49.7 6 50.8 6.6L50.3 7.9Q49.9 7.7 49.4 7.6Q49 7.4 48.5 7.4ZM52.2 14L52.2 6.1L53.9 6.1L53.9 14L52.2 14Z"/>
            <path d="M72.8 14L72.2 12.1L69.4 12.1L68.8 14L67 14L69.8 6.1L71.8 6.1L74.6 14L72.8 14M71.8 10.7Q71 8.2 70.9 7.9Q70.8 7.5 70.8 7.3Q70.6 8 69.8 10.7L71.8 10.7ZM77.1 10.7L75.1 10.7L75.1 9.5L77.1 9.5L77.1 7.4L78.3 7.4L78.3 9.5L80.4 9.5L80.4 10.7L78.3 10.7L78.3 12.8L77.1 12.8L77.1 10.7Z"/>
        </g>
    </defs>

    <g mask="url(#mask)">
        <rect fill="#555" x="0" y="0" width="61" height="20"/>
        <rect fill="#61CFDD" x="61" y="0" width="87" height="20"/>
    </g>
    <g fill="#fff">
        <use x="0" y="0" xlink:href="#text"/>
    </g>
</svg>
